solid fin-3
   facet normal 0.000000e+00 -1.000000e+00 0.000000e+00
      outer loop
         vertex 3.000006e-03 -5.960464e-09 2.980000e-01
         vertex 1.780000e-01 -5.960464e-09 2.980000e-01
         vertex 3.000006e-03 -5.960464e-09 3.080000e-01
      endloop
   endfacet
   facet normal 0.000000e+00 -1.000000e+00 -0.000000e+00
      outer loop
         vertex 1.780000e-01 -5.960464e-09 2.980000e-01
         vertex 1.780000e-01 -5.960464e-09 3.080000e-01
         vertex 3.000006e-03 -5.960464e-09 3.080000e-01
      endloop
   endfacet
   facet normal -1.000000e+00 0.000000e+00 -6.982963e-15
      outer loop
         vertex 3.000006e-03 1.300000e-01 2.980000e-01
         vertex 3.000006e-03 -5.960464e-09 2.980000e-01
         vertex 3.000006e-03 -5.960464e-09 3.080000e-01
      endloop
   endfacet
   facet normal -1.000000e+00 0.000000e+00 -6.982963e-15
      outer loop
         vertex 3.000006e-03 1.300000e-01 3.080000e-01
         vertex 3.000006e-03 1.300000e-01 2.980000e-01
         vertex 3.000006e-03 -5.960464e-09 3.080000e-01
      endloop
   endfacet
   facet normal 1.000000e+00 -1.224647e-16 6.982963e-15
      outer loop
         vertex 1.780000e-01 -5.960464e-09 2.980000e-01
         vertex 1.780000e-01 4.000000e-01 2.980000e-01
         vertex 1.780000e-01 -5.960464e-09 3.080000e-01
      endloop
   endfacet
   facet normal 1.000000e+00 -1.224647e-16 6.982963e-15
      outer loop
         vertex 1.780000e-01 4.000000e-01 2.980000e-01
         vertex 1.780000e-01 4.000000e-01 3.080000e-01
         vertex 1.780000e-01 -5.960464e-09 3.080000e-01
      endloop
   endfacet
   facet normal -6.953225e-15 6.672014e-18 1.000000e+00
      outer loop
         vertex 3.000006e-03 1.300000e-01 3.080000e-01
         vertex 3.000006e-03 -5.960464e-09 3.080000e-01
         vertex 1.780000e-01 -5.960464e-09 3.080000e-01
      endloop
   endfacet
   facet normal -6.958181e-15 -3.034891e-33 1.000000e+00
      outer loop
         vertex 1.780000e-01 4.000000e-01 3.080000e-01
         vertex 3.000006e-03 1.300000e-01 3.080000e-01
         vertex 1.780000e-01 -5.960464e-09 3.080000e-01
      endloop
   endfacet
   facet normal 6.982963e-15 0.000000e+00 -1.000000e+00
      outer loop
         vertex 3.000006e-03 1.300000e-01 2.980000e-01
         vertex 1.780000e-01 4.000000e-01 2.980000e-01
         vertex 1.780000e-01 -5.960464e-09 2.980000e-01
      endloop
   endfacet
   facet normal 6.982963e-15 0.000000e+00 -1.000000e+00
      outer loop
         vertex 3.000006e-03 -5.960464e-09 2.980000e-01
         vertex 3.000006e-03 1.300000e-01 2.980000e-01
         vertex 1.780000e-01 -5.960464e-09 2.980000e-01
      endloop
   endfacet
   facet normal -9.512927e-01 3.082893e-01 -6.642841e-15
      outer loop
         vertex 9.050000e-02 4.000000e-01 3.080000e-01
         vertex 3.000006e-03 1.300000e-01 2.980000e-01
         vertex 3.000006e-03 1.300000e-01 3.080000e-01
      endloop
   endfacet
   facet normal -6.982963e-15 1.606225e-17 1.000000e+00
      outer loop
         vertex 1.780000e-01 4.000000e-01 3.080000e-01
         vertex 9.050000e-02 4.000000e-01 3.080000e-01
         vertex 3.000006e-03 1.300000e-01 3.080000e-01
      endloop
   endfacet
   facet normal 6.982963e-15 0.000000e+00 -1.000000e+00
      outer loop
         vertex 9.050000e-02 4.000000e-01 2.980000e-01
         vertex 1.780000e-01 4.000000e-01 2.980000e-01
         vertex 3.000006e-03 1.300000e-01 2.980000e-01
      endloop
   endfacet
   facet normal -9.512927e-01 3.082893e-01 -6.642841e-15
      outer loop
         vertex 9.050000e-02 4.000000e-01 3.080000e-01
         vertex 9.050000e-02 4.000000e-01 2.980000e-01
         vertex 3.000006e-03 1.300000e-01 2.980000e-01
      endloop
   endfacet
   facet normal 0.000000e+00 1.000000e+00 0.000000e+00
      outer loop
         vertex 1.780000e-01 4.000000e-01 2.980000e-01
         vertex 9.050000e-02 4.000000e-01 3.080000e-01
         vertex 1.780000e-01 4.000000e-01 3.080000e-01
      endloop
   endfacet
   facet normal 0.000000e+00 1.000000e+00 0.000000e+00
      outer loop
         vertex 1.780000e-01 4.000000e-01 2.980000e-01
         vertex 9.050000e-02 4.000000e-01 2.980000e-01
         vertex 9.050000e-02 4.000000e-01 3.080000e-01
      endloop
   endfacet
endsolid
