solid fin-4
   facet normal -0.000000e+00 -1.000000e+00 0.000000e+00
      outer loop
         vertex 3.080000e-01 -5.960464e-09 3.000006e-03
         vertex 3.080000e-01 -5.960464e-09 1.780000e-01
         vertex 2.980000e-01 -5.960464e-09 3.000006e-03
      endloop
   endfacet
   facet normal 0.000000e+00 -1.000000e+00 0.000000e+00
      outer loop
         vertex 3.080000e-01 -5.960464e-09 1.780000e-01
         vertex 2.980000e-01 -5.960464e-09 1.780000e-01
         vertex 2.980000e-01 -5.960464e-09 3.000006e-03
      endloop
   endfacet
   facet normal 1.047444e-14 0.000000e+00 -1.000000e+00
      outer loop
         vertex 3.080000e-01 1.300000e-01 3.000006e-03
         vertex 3.080000e-01 -5.960464e-09 3.000006e-03
         vertex 2.980000e-01 -5.960464e-09 3.000006e-03
      endloop
   endfacet
   facet normal 1.047444e-14 0.000000e+00 -1.000000e+00
      outer loop
         vertex 2.980000e-01 1.300000e-01 3.000006e-03
         vertex 3.080000e-01 1.300000e-01 3.000006e-03
         vertex 2.980000e-01 -5.960464e-09 3.000006e-03
      endloop
   endfacet
   facet normal -1.047444e-14 -1.224647e-16 1.000000e+00
      outer loop
         vertex 3.080000e-01 -5.960464e-09 1.780000e-01
         vertex 3.080000e-01 4.000000e-01 1.780000e-01
         vertex 2.980000e-01 -5.960464e-09 1.780000e-01
      endloop
   endfacet
   facet normal -1.047444e-14 -1.224647e-16 1.000000e+00
      outer loop
         vertex 3.080000e-01 4.000000e-01 1.780000e-01
         vertex 2.980000e-01 4.000000e-01 1.780000e-01
         vertex 2.980000e-01 -5.960464e-09 1.780000e-01
      endloop
   endfacet
   facet normal -1.000000e+00 6.672014e-18 -1.044471e-14
      outer loop
         vertex 2.980000e-01 1.300000e-01 3.000006e-03
         vertex 2.980000e-01 -5.960464e-09 3.000006e-03
         vertex 2.980000e-01 -5.960464e-09 1.780000e-01
      endloop
   endfacet
   facet normal -1.000000e+00 -3.034891e-33 -1.044966e-14
      outer loop
         vertex 2.980000e-01 4.000000e-01 1.780000e-01
         vertex 2.980000e-01 1.300000e-01 3.000006e-03
         vertex 2.980000e-01 -5.960464e-09 1.780000e-01
      endloop
   endfacet
   facet normal 1.000000e+00 0.000000e+00 1.047444e-14
      outer loop
         vertex 3.080000e-01 1.300000e-01 3.000006e-03
         vertex 3.080000e-01 4.000000e-01 1.780000e-01
         vertex 3.080000e-01 -5.960464e-09 1.780000e-01
      endloop
   endfacet
   facet normal 1.000000e+00 0.000000e+00 1.047444e-14
      outer loop
         vertex 3.080000e-01 -5.960464e-09 3.000006e-03
         vertex 3.080000e-01 1.300000e-01 3.000006e-03
         vertex 3.080000e-01 -5.960464e-09 1.780000e-01
      endloop
   endfacet
   facet normal 9.964262e-15 3.082893e-01 -9.512927e-01
      outer loop
         vertex 2.980000e-01 4.000000e-01 9.050000e-02
         vertex 3.080000e-01 1.300000e-01 3.000006e-03
         vertex 2.980000e-01 1.300000e-01 3.000006e-03
      endloop
   endfacet
   facet normal -1.000000e+00 1.606225e-17 -1.047444e-14
      outer loop
         vertex 2.980000e-01 4.000000e-01 1.780000e-01
         vertex 2.980000e-01 4.000000e-01 9.050000e-02
         vertex 2.980000e-01 1.300000e-01 3.000006e-03
      endloop
   endfacet
   facet normal 1.000000e+00 0.000000e+00 1.047444e-14
      outer loop
         vertex 3.080000e-01 4.000000e-01 9.050000e-02
         vertex 3.080000e-01 4.000000e-01 1.780000e-01
         vertex 3.080000e-01 1.300000e-01 3.000006e-03
      endloop
   endfacet
   facet normal 9.964262e-15 3.082893e-01 -9.512927e-01
      outer loop
         vertex 2.980000e-01 4.000000e-01 9.050000e-02
         vertex 3.080000e-01 4.000000e-01 9.050000e-02
         vertex 3.080000e-01 1.300000e-01 3.000006e-03
      endloop
   endfacet
   facet normal 0.000000e+00 1.000000e+00 0.000000e+00
      outer loop
         vertex 3.080000e-01 4.000000e-01 1.780000e-01
         vertex 2.980000e-01 4.000000e-01 9.050000e-02
         vertex 2.980000e-01 4.000000e-01 1.780000e-01
      endloop
   endfacet
   facet normal 0.000000e+00 1.000000e+00 0.000000e+00
      outer loop
         vertex 3.080000e-01 4.000000e-01 1.780000e-01
         vertex 3.080000e-01 4.000000e-01 9.050000e-02
         vertex 2.980000e-01 4.000000e-01 9.050000e-02
      endloop
   endfacet
endsolid
